<?xml version="1.0" encoding="UTF-8" standalone="no"?>
<!DOCTYPE svg PUBLIC "-//W3C//DTD SVG 1.1//EN"
 "http://www.w3.org/Graphics/SVG/1.1/DTD/svg11.dtd">
<!-- Generated by graphviz version 14.1.5 (20260411.2331)
 -->
<!-- Title: tunnel Pages: 1 -->
<svg width="518pt" height="44pt"
 viewBox="0.00 0.00 518.00 44.00" xmlns="http://www.w3.org/2000/svg" xmlns:xlink="http://www.w3.org/1999/xlink">
<g id="graph0" class="graph" transform="scale(1 1) rotate(0) translate(4 40)">
<title>tunnel</title>
<!-- curl -->
<g id="node1" class="node">
<title>curl</title>
<polygon fill="#e8e8e8" stroke="#999999" points="54,-36 0,-36 0,0 54,0 54,-36"/>
<text xml:space="preserve" text-anchor="middle" x="27" y="-19.35" font-family="Helvetica,sans-Serif" font-size="12.00">curl</text>
<text xml:space="preserve" text-anchor="middle" x="27" y="-6.6" font-family="Helvetica,sans-Serif" font-size="12.00">:8081</text>
</g>
<!-- client -->
<g id="node2" class="node">
<title>client</title>
<polygon fill="#4a90d9" stroke="#3a7bc8" points="214,-36 138.75,-36 138.75,0 214,0 214,-36"/>
<text xml:space="preserve" text-anchor="middle" x="176.38" y="-19.35" font-family="Helvetica,sans-Serif" font-size="12.00" fill="white">ghostunnel</text>
<text xml:space="preserve" text-anchor="middle" x="176.38" y="-6.6" font-family="Helvetica,sans-Serif" font-size="12.00" fill="white">client</text>
</g>
<!-- curl&#45;&gt;client -->
<g id="edge1" class="edge">
<title>curl&#45;&gt;client</title>
<path fill="none" stroke="#999999" d="M54.35,-18C74.48,-18 102.8,-18 126.98,-18"/>
<polygon fill="#999999" stroke="#999999" points="126.95,-21.5 136.95,-18 126.95,-14.5 126.95,-21.5"/>
<text xml:space="preserve" text-anchor="middle" x="96.38" y="-19.75" font-family="Helvetica,sans-Serif" font-size="10.00" fill="#666666"> &#160;plaintext &#160;</text>
</g>
<!-- server -->
<g id="node3" class="node">
<title>server</title>
<polygon fill="#4a90d9" stroke="#3a7bc8" points="363.5,-36 288.25,-36 288.25,0 363.5,0 363.5,-36"/>
<text xml:space="preserve" text-anchor="middle" x="325.88" y="-19.35" font-family="Helvetica,sans-Serif" font-size="12.00" fill="white">ghostunnel</text>
<text xml:space="preserve" text-anchor="middle" x="325.88" y="-6.6" font-family="Helvetica,sans-Serif" font-size="12.00" fill="white">server</text>
</g>
<!-- client&#45;&gt;server -->
<g id="edge2" class="edge">
<title>client&#45;&gt;server</title>
<path fill="none" stroke="#d94a4a" stroke-width="2" d="M214.21,-18C232.61,-18 255.12,-18 275.03,-18"/>
<polygon fill="#d94a4a" stroke="#d94a4a" stroke-width="2" points="274.97,-21.5 284.97,-18 274.97,-14.5 274.97,-21.5"/>
<text xml:space="preserve" text-anchor="middle" x="251.12" y="-19.75" font-family="Helvetica,sans-Serif" font-size="10.00" fill="#d94a4a"> &#160;mTLS &#160;</text>
</g>
<!-- backend -->
<g id="node4" class="node">
<title>backend</title>
<polygon fill="#e8e8e8" stroke="#999999" points="510,-36 448.25,-36 448.25,0 510,0 510,-36"/>
<text xml:space="preserve" text-anchor="middle" x="479.12" y="-19.35" font-family="Helvetica,sans-Serif" font-size="12.00">backend</text>
<text xml:space="preserve" text-anchor="middle" x="479.12" y="-6.6" font-family="Helvetica,sans-Serif" font-size="12.00">:8080</text>
</g>
<!-- server&#45;&gt;backend -->
<g id="edge3" class="edge">
<title>server&#45;&gt;backend</title>
<path fill="none" stroke="#999999" d="M363.87,-18C385.92,-18 413.95,-18 436.73,-18"/>
<polygon fill="#999999" stroke="#999999" points="436.59,-21.5 446.59,-18 436.59,-14.5 436.59,-21.5"/>
<text xml:space="preserve" text-anchor="middle" x="405.88" y="-19.75" font-family="Helvetica,sans-Serif" font-size="10.00" fill="#666666"> &#160;plaintext &#160;</text>
</g>
</g>
</svg>
